<svg width="25" height="26" viewBox="0 0 25 26" fill="none" xmlns="http://www.w3.org/2000/svg">
<path d="M12.7922 21.0576C10.8937 18.5805 9.01038 16.0152 9.01038 14.1243C9.01038 11.603 10.271 10.3424 12.7922 10.3424C15.3134 10.3424 16.574 11.603 16.574 14.1243C16.574 16.0152 14.6907 18.5805 12.7922 21.0576ZM12.7922 21.0576C14.0528 22.3182 14.6831 22.9485 15.9437 23.5788C17.2043 24.2091 19.0952 24.8394 21.6164 22.9485C24.1377 21.0576 23.5074 18.5364 22.2468 15.3849C20.9861 12.2334 19.3058 8.45153 15.9437 3.40911C14.8924 2.1485 14.0528 1.5182 12.7884 1.5182C11.5278 1.5182 10.7425 2.08547 9.64068 3.40911C6.27865 8.45153 4.59826 12.2334 3.33765 15.3849C2.07704 18.5364 1.44674 21.0576 3.96795 22.9485C6.48917 24.8394 8.38008 24.2091 9.64068 23.5788C10.9013 22.9485 11.5316 22.3182 12.7922 21.0576Z" stroke="#71717A" stroke-width="2.5" stroke-linecap="round" stroke-linejoin="round"/>
</svg>
