<svg width="23" height="23" viewBox="0 0 23 23" fill="none" xmlns="http://www.w3.org/2000/svg">
<path d="M22.188 9.44364H11.5132V13.8311H17.6114C17.3484 15.2493 16.5507 16.4489 15.3482 17.2525C14.3318 17.9321 13.0348 18.3339 11.5102 18.3339C8.55864 18.3339 6.06205 16.3396 5.16977 13.6598C4.94523 12.9802 4.81523 12.2534 4.81523 11.5059C4.81523 10.7584 4.94523 10.0316 5.16977 9.35205C6.065 6.67524 8.56159 4.68092 11.5132 4.68092C13.1766 4.68092 14.6686 5.2541 15.8446 6.37683L19.0946 3.12387C17.1298 1.29205 14.5682 0.169327 11.5132 0.169327C7.08432 0.169327 3.25227 2.71024 1.38795 6.41524C0.619768 7.94569 0.182495 9.67705 0.182495 11.5089C0.182495 13.3407 0.619768 15.0691 1.38795 16.5996C3.25227 20.3046 7.08432 22.8455 11.5132 22.8455C14.5741 22.8455 17.1387 21.8291 19.0118 20.0977C21.1539 18.1241 22.3918 15.2168 22.3918 11.763C22.3918 10.9593 22.3209 10.1882 22.188 9.44364Z" fill="#71717A"/>
</svg>
