<svg width="26" height="19" viewBox="0 0 26 19" fill="none" xmlns="http://www.w3.org/2000/svg">
<path d="M12.9999 7.19815C15.1842 3.68862 17.1001 1.93638 18.7488 1.93638C21.2226 1.93638 22.7847 4.7261 23.6963 8.51296C24.567 12.1296 24.3147 17.0637 21.2226 17.0637C19.8447 17.0637 17.9474 15.0908 16.0921 12.4599C14.9115 10.8021 13.8768 9.04134 12.9999 7.19815ZM12.9999 7.19815C10.8156 3.68862 8.89973 1.93638 7.251 1.93638C4.77728 1.93638 3.21513 4.7261 2.30356 8.51296C1.43282 12.1296 1.68514 17.0637 4.77728 17.0637C6.15514 17.0637 8.05248 15.0908 9.90777 12.4599C11.1446 10.7064 12.1749 8.95165 12.9999 7.19815Z" stroke="#71717A" stroke-width="2.66667" stroke-linecap="round" stroke-linejoin="round"/>
</svg>
