<svg width="25" height="26" viewBox="0 0 25 26" fill="none" xmlns="http://www.w3.org/2000/svg">
<path d="M3.43196 0.736374C2.7215 0.736374 2.04014 1.0186 1.53777 1.52097C1.0354 2.02334 0.753174 2.7047 0.753174 3.41516C0.753174 4.12562 1.0354 4.80698 1.53777 5.30935C2.04014 5.81172 2.7215 6.09395 3.43196 6.09395C4.14242 6.09395 4.82378 5.81172 5.32615 5.30935C5.82852 4.80698 6.11075 4.12562 6.11075 3.41516C6.11075 2.7047 5.82852 2.02334 5.32615 1.52097C4.82378 1.0186 4.14242 0.736374 3.43196 0.736374ZM0.910749 8.3C0.868958 8.3 0.828878 8.31661 0.799327 8.34616C0.769775 8.37571 0.753174 8.41579 0.753174 8.45758V24.8454C0.753174 24.9324 0.823768 25.003 0.910749 25.003H5.95317C5.99496 25.003 6.03504 24.9864 6.06459 24.9569C6.09414 24.9273 6.11075 24.8872 6.11075 24.8454V8.45758C6.11075 8.41579 6.09414 8.37571 6.06459 8.34616C6.03504 8.31661 5.99496 8.3 5.95317 8.3H0.910749ZM9.10468 8.3C9.06289 8.3 9.02281 8.31661 8.99326 8.34616C8.96371 8.37571 8.94711 8.41579 8.94711 8.45758V24.8454C8.94711 24.9324 9.0177 25.003 9.10468 25.003H14.1471C14.1889 25.003 14.229 24.9864 14.2585 24.9569C14.2881 24.9273 14.3047 24.8872 14.3047 24.8454V16.0212C14.3047 15.3943 14.5537 14.7931 14.997 14.3499C15.4402 13.9066 16.0414 13.6576 16.6683 13.6576C17.2952 13.6576 17.8964 13.9066 18.3397 14.3499C18.7829 14.7931 19.0319 15.3943 19.0319 16.0212V24.8454C19.0319 24.9324 19.1025 25.003 19.1895 25.003H24.2319C24.2737 25.003 24.3138 24.9864 24.3434 24.9569C24.3729 24.9273 24.3895 24.8872 24.3895 24.8454V13.979C24.3895 10.9195 21.7296 8.52691 18.6853 8.80299C17.7433 8.88873 16.8207 9.12184 15.951 9.4938L14.3047 10.1997V8.45758C14.3047 8.41579 14.2881 8.37571 14.2585 8.34616C14.229 8.31661 14.1889 8.3 14.1471 8.3H9.10468Z" fill="#71717A"/>
</svg>
