<svg width="38" height="27" viewBox="0 0 38 27" fill="none" xmlns="http://www.w3.org/2000/svg">
<path d="M14.7977 12.8878H13.2407C13.2815 12.5829 13.4369 12.0535 14.0467 12.0535C14.4456 12.0535 14.754 12.2792 14.7977 12.8878ZM22.8731 12.0676C22.8453 12.0676 22.0393 11.963 22.0393 13.2495C22.0393 14.5359 22.8447 14.4313 22.8731 14.4313C23.6413 14.4313 23.7069 13.6312 23.7069 13.2495C23.7069 11.9636 22.8997 12.0676 22.8731 12.0676ZM8.50103 13.4716C8.43627 13.5224 8.38476 13.5881 8.35091 13.6631C8.31705 13.7382 8.30186 13.8202 8.30662 13.9024C8.30662 14.1849 8.42953 14.2599 8.50103 14.319C8.77875 14.5376 9.39152 14.4443 9.7378 14.3751V13.3741C9.42343 13.3109 8.74921 13.2583 8.50103 13.4716ZM37.9088 12.0818C37.9088 17.257 33.1815 21.2049 28.1375 20.1436C27.052 22.0936 23.958 24.3243 20.3257 22.6035C17.8935 28.2792 9.81402 28.0505 7.69148 22.298C0.617123 23.7097 -2.87515 14.1216 3.24371 10.5224C1.1903 5.82883 4.58153 0.263649 9.99839 0.263649C11.1249 0.264349 12.2361 0.524268 13.246 1.02329C14.2559 1.5223 15.1375 2.24703 15.8224 3.14137C17.0456 1.87683 18.7415 1.08442 20.6176 1.08442C23.1195 1.08442 25.2858 2.47424 26.4558 4.54537C31.9406 2.14156 37.9088 6.21351 37.9088 12.0818ZM7.20812 13.9609C7.20812 13.266 6.51735 13.0645 6.15216 12.9463C5.84075 12.8216 5.35976 12.7389 5.35976 12.418C5.35976 11.859 6.3643 12.0245 6.84707 12.2928C6.84707 12.2928 6.91621 12.3347 6.94398 12.265C6.95816 12.2236 7.08344 11.8762 7.09703 11.8342C7.10232 11.8177 7.10096 11.7997 7.09324 11.7842C7.08552 11.7686 7.07204 11.7567 7.05566 11.7509C6.32707 11.3 4.65066 11.248 4.65066 12.5014C4.65066 13.2376 5.32962 13.4137 5.70721 13.516C5.98612 13.6093 6.48544 13.6932 6.48544 14.03C6.48544 14.2664 6.27685 14.4472 5.94357 14.4472C5.53865 14.4465 5.14481 14.3149 4.82085 14.072C4.79307 14.0584 4.73694 14.03 4.72335 14.114L4.58153 14.5554C4.55376 14.6109 4.59512 14.6251 4.59512 14.6387C4.69853 14.7214 5.20376 15.0281 5.94357 15.0281C6.7218 15.0281 7.20812 14.6109 7.20812 13.958V13.9609ZM9.09902 11.4448C8.50043 11.4448 7.99639 11.6321 7.83448 11.7509C7.82801 11.7554 7.82249 11.7611 7.81826 11.7678C7.81403 11.7744 7.81118 11.7818 7.80985 11.7896C7.80853 11.7973 7.80878 11.8053 7.81057 11.813C7.81236 11.8206 7.81567 11.8279 7.8203 11.8342L7.97334 12.2514C7.9775 12.2659 7.98703 12.2782 7.99999 12.2859C8.01296 12.2936 8.02837 12.2961 8.04307 12.2928C8.08148 12.2928 8.44489 12.0564 9.04348 12.0564C9.27984 12.0564 9.46066 12.0984 9.58593 12.1959C9.79866 12.3613 9.76675 12.6857 9.76675 12.821C9.48371 12.8033 8.63753 12.6178 8.02889 13.0432C7.89015 13.1384 7.77766 13.267 7.70184 13.4172C7.62602 13.5674 7.58933 13.7343 7.59516 13.9024C7.59516 14.251 7.68439 14.517 7.98457 14.7504C8.70784 15.2325 10.1284 14.8685 10.2359 14.8337C10.3293 14.8148 10.4445 14.7947 10.4445 14.7226V12.7206C10.4469 12.4482 10.4634 11.4419 9.09843 11.4419L9.09902 11.4448ZM11.8497 10.2051C11.8503 10.1958 11.8489 10.1864 11.8456 10.1777C11.8423 10.169 11.8372 10.161 11.8306 10.1544C11.824 10.1478 11.8161 10.1427 11.8074 10.1394C11.7986 10.1361 11.7893 10.1348 11.78 10.1354H11.1997C11.1904 10.1348 11.1812 10.1363 11.1725 10.1396C11.1638 10.143 11.156 10.1481 11.1494 10.1547C11.1429 10.1613 11.1378 10.1692 11.1346 10.1779C11.1313 10.1865 11.13 10.1958 11.1306 10.2051V14.8733C11.13 14.8825 11.1313 14.8918 11.1346 14.9005C11.1378 14.9092 11.1429 14.9171 11.1494 14.9237C11.156 14.9303 11.1638 14.9354 11.1725 14.9387C11.1812 14.9421 11.1904 14.9435 11.1997 14.943H11.7835C11.7928 14.9436 11.8022 14.9422 11.8109 14.9389C11.8196 14.9356 11.8276 14.9305 11.8342 14.9239C11.8408 14.9173 11.8459 14.9094 11.8492 14.9007C11.8525 14.8919 11.8539 14.8826 11.8533 14.8733L11.8497 10.2051ZM15.144 11.9146C15.0199 11.7781 14.7428 11.4696 14.1011 11.4696C13.8937 11.4696 13.2643 11.4832 12.8779 11.9979C12.5027 12.4488 12.4891 13.068 12.4891 13.263C12.4891 13.4474 12.4979 14.1057 12.9062 14.514C13.0622 14.686 13.4416 15.0003 14.2541 15.0003C14.8935 15.0003 15.2273 14.8615 15.352 14.7781C15.3798 14.764 15.394 14.7362 15.3662 14.667L15.2273 14.2635C15.2202 14.2481 15.2081 14.2357 15.1929 14.2282C15.1778 14.2206 15.1605 14.2185 15.144 14.2221C14.991 14.2776 14.7688 14.3887 14.2405 14.3887C13.2112 14.3887 13.2448 13.5177 13.2395 13.4019H15.4359C15.452 13.4016 15.4674 13.396 15.48 13.3859C15.4925 13.3759 15.5013 13.362 15.5051 13.3464C15.4879 13.3464 15.6274 12.4777 15.1452 11.9146H15.144ZM17.3121 15.0281C18.0903 15.0281 18.5772 14.6109 18.5772 13.958C18.5772 13.263 17.8858 13.0615 17.5207 12.9434C17.276 12.8453 16.7282 12.7436 16.7282 12.4151C16.7282 12.1929 16.9227 12.0399 17.2287 12.0399C17.5725 12.0468 17.91 12.1323 18.2156 12.2898C18.2156 12.2898 18.2853 12.3318 18.3131 12.262C18.3267 12.2207 18.4519 11.8732 18.4655 11.8313C18.4708 11.8147 18.4695 11.7968 18.4617 11.7812C18.454 11.7657 18.4405 11.7537 18.4242 11.748C17.9567 11.4584 17.435 11.456 17.2287 11.456C16.5197 11.456 16.0197 11.8868 16.0197 12.4984C16.0197 13.2347 16.6981 13.4108 17.0757 13.513C17.4367 13.6312 17.8539 13.7056 17.8539 14.0271C17.8539 14.2635 17.6459 14.4443 17.3121 14.4443C16.9072 14.4434 16.5134 14.3118 16.1893 14.069C16.1809 14.0618 16.1707 14.0571 16.1598 14.0555C16.1488 14.0538 16.1377 14.0552 16.1275 14.0596C16.1173 14.064 16.1086 14.0711 16.1023 14.0802C16.096 14.0893 16.0924 14.1 16.0918 14.111L15.953 14.5554C15.9252 14.6109 15.9666 14.6251 15.9666 14.6387C16.0682 14.7214 16.577 15.0281 17.3132 15.0281H17.3121ZM21.1914 11.6091C21.1914 11.5671 21.1772 11.5394 21.1217 11.5394H20.4267C20.4267 11.5311 20.4823 11.0111 20.6909 10.8025C20.9367 10.5573 21.3858 10.7056 21.4 10.7056C21.4691 10.7334 21.4833 10.7056 21.4969 10.6778L21.6641 10.2187C21.7055 10.1631 21.6641 10.1495 21.6499 10.1354C21.3492 10.0172 20.6247 9.96578 20.2046 10.3859C19.8807 10.7097 19.7909 11.2085 19.7318 11.5394H19.2313C19.2134 11.5409 19.1966 11.5487 19.1839 11.5615C19.1712 11.5743 19.1635 11.5911 19.1622 11.6091L19.0783 12.0676C19.0783 12.109 19.0925 12.1368 19.148 12.1368H19.6343C19.1315 14.9672 19.1173 15.1037 19.0227 15.4175C18.9589 15.6314 18.8283 15.8252 18.6753 15.876C18.67 15.876 18.446 15.9753 18.1057 15.8619C18.1057 15.8619 18.0501 15.8341 18.0223 15.9038C18.0082 15.9458 17.8693 16.3068 17.8551 16.3488C17.8409 16.3907 17.8551 16.4321 17.8829 16.4321C18.1848 16.5503 18.6511 16.5367 18.9394 16.4321C19.3105 16.2974 19.5138 15.9659 19.6207 15.6675C19.7832 15.2119 19.7868 15.089 20.3157 12.1374H21.0383C21.0563 12.1359 21.0732 12.1281 21.086 12.1153C21.0988 12.1025 21.1066 12.0856 21.1081 12.0676L21.1914 11.6091ZM24.3462 12.5545C24.3132 12.4553 24.0449 11.4844 22.8589 11.4844C21.9578 11.4844 21.4998 12.0753 21.3722 12.5545C21.3131 12.7318 21.1843 13.3818 21.3722 13.9444C21.3775 13.9621 21.6328 15.0151 22.8589 15.0151C23.7423 15.0151 24.2121 14.4472 24.3462 13.9444C24.5359 13.3765 24.4059 12.7318 24.3462 12.5545ZM27.029 11.5677C26.7335 11.4702 26.0469 11.4555 25.7225 11.8874V11.6233C25.723 11.614 25.7215 11.6047 25.7182 11.5961C25.7149 11.5874 25.7098 11.5795 25.7032 11.573C25.6966 11.5665 25.6887 11.5614 25.68 11.5582C25.6713 11.5549 25.662 11.5535 25.6527 11.5541H25.0973C25.088 11.5535 25.0787 11.5549 25.07 11.5582C25.0614 11.5614 25.0535 11.5665 25.0469 11.573C25.0403 11.5795 25.0351 11.5874 25.0318 11.5961C25.0285 11.6047 25.027 11.614 25.0276 11.6233V14.8898C25.027 14.8991 25.0285 14.9084 25.0318 14.9171C25.0351 14.9258 25.0403 14.9337 25.0468 14.9403C25.0534 14.9468 25.0613 14.952 25.07 14.9553C25.0787 14.9586 25.088 14.9601 25.0973 14.9595H25.6669C25.6762 14.9601 25.6855 14.9586 25.6942 14.9553C25.7029 14.952 25.7108 14.9468 25.7174 14.9403C25.7239 14.9337 25.7291 14.9258 25.7324 14.9171C25.7357 14.9084 25.7372 14.8991 25.7367 14.8898V13.2489C25.7367 13.0769 25.7396 12.577 26.0002 12.3595C26.2897 12.07 26.7093 12.161 26.7926 12.1787C26.8104 12.1784 26.8276 12.173 26.8424 12.1632C26.8572 12.1533 26.8688 12.1394 26.8759 12.1232C26.9453 11.9692 27.0056 11.8114 27.0567 11.6505C27.0626 11.6355 27.063 11.619 27.0579 11.6038C27.0529 11.5885 27.0426 11.5756 27.029 11.5671V11.5677ZM29.795 14.7645L29.6697 14.3338C29.642 14.264 29.5864 14.2918 29.5864 14.2918C29.3365 14.3994 28.9866 14.4035 28.9193 14.4035C28.6451 14.4035 27.9047 14.3367 27.9047 13.2359C27.9047 12.8677 28.014 12.0682 28.8779 12.0682C29.1087 12.0623 29.3388 12.0953 29.5586 12.1657C29.5586 12.1657 29.6142 12.1935 29.6284 12.1238C29.6839 11.9707 29.7253 11.8596 29.7814 11.6788C29.795 11.6233 29.7536 11.6097 29.7395 11.6097C29.0546 11.381 28.4194 11.4602 28.0991 11.6097C28.0051 11.6534 27.1401 11.9932 27.1401 13.2359C27.1401 13.4072 27.1058 15.0151 28.8501 15.0151C29.1634 15.0145 29.474 14.9578 29.7672 14.8479C29.7799 14.8384 29.7894 14.8253 29.7944 14.8103C29.7994 14.7953 29.7996 14.7791 29.795 14.764V14.7645ZM32.9782 12.4293C32.931 12.252 32.6609 11.4702 31.6576 11.4702C30.7121 11.4702 30.2677 12.0676 30.1425 12.5687C30.0743 12.7939 30.0414 13.0284 30.045 13.2636C30.045 14.7923 31.1582 15.0009 31.8106 15.0009C32.45 15.0009 32.7832 14.862 32.9085 14.7787C32.9363 14.7645 32.9505 14.7368 32.9227 14.6676L32.7832 14.264C32.7761 14.2487 32.764 14.2363 32.7488 14.2288C32.7337 14.2212 32.7164 14.2191 32.6999 14.2227C32.5469 14.2782 32.3247 14.3893 31.7964 14.3893C30.7671 14.3893 30.8007 13.5183 30.796 13.4025H32.9918C33.0079 13.4021 33.0234 13.3965 33.036 13.3864C33.0486 13.3764 33.0576 13.3625 33.0616 13.347C33.0474 13.3464 33.1171 12.9292 32.9782 12.4287V12.4293ZM31.602 12.054C30.9916 12.054 30.8338 12.5859 30.796 12.8884H32.3542C32.3022 12.184 31.904 12.0535 31.602 12.0535V12.054Z" fill="#71717A"/>
</svg>
