<svg width="26" height="27" viewBox="0 0 26 27" fill="none" xmlns="http://www.w3.org/2000/svg">
<path d="M18.0969 19.9165C17.87 20.1182 17.5548 20.1308 17.3027 19.9921C16.1808 19.0593 15.9791 18.6307 15.3614 17.7356C13.5083 19.6266 12.1973 20.1938 9.78952 20.1938C6.95316 20.1938 4.7345 18.4416 4.7345 14.9371C4.7345 12.189 6.20941 10.3485 8.33983 9.41565C10.1803 8.60886 12.7393 8.45759 14.6933 8.24328V7.82728C14.6933 6.99528 14.7563 6.04983 14.2773 5.3565C13.8739 4.7388 13.0797 4.47407 12.3864 4.47407C11.1006 4.47407 9.9534 5.14219 9.67607 6.50365C9.61304 6.80619 9.36092 7.10874 9.08358 7.12135L5.80601 6.76838C5.52868 6.70535 5.22614 6.49104 5.30177 6.06244C6.05813 2.09153 9.65086 0.893951 12.8654 0.893951C14.5042 0.893951 16.6472 1.33516 17.9456 2.57056C19.5844 4.1085 19.4458 6.16328 19.4458 8.39456V13.6513C19.4458 15.227 20.0761 15.933 20.7064 16.7776C20.9207 17.0927 20.9711 17.4583 20.7064 17.6726L18.1095 19.9165H18.0969ZM14.6933 11.6847V10.9788C12.2477 10.9788 9.66346 11.4704 9.66346 14.3446C9.66346 15.8069 10.4324 16.8028 11.7182 16.8028C12.6763 16.8028 13.5209 16.2103 14.063 15.2649C14.7185 14.0925 14.6933 12.9958 14.6933 11.6847ZM23.4293 23.005C20.7064 25.022 16.6976 26.1061 13.2688 26.1061C8.46589 26.1061 4.12941 24.3286 0.851838 21.3662C0.599717 21.1393 0.826626 20.8241 1.16699 21.0006C4.67147 23.0554 9.04577 24.2908 13.5587 24.2908C16.5968 24.2908 19.95 23.6605 23.0259 22.3621C23.4923 22.1604 23.8579 22.6646 23.4293 23.005ZM24.5764 21.694C24.2234 21.2401 22.2443 21.4796 21.3367 21.5931C21.0971 21.6183 21.0593 21.3914 21.2988 21.2149C22.862 20.1056 25.4462 20.4333 25.7488 20.7989C26.0513 21.1771 25.6605 23.7613 24.1856 24.9841C23.9587 25.1858 23.7444 25.0724 23.8579 24.8455C24.1856 24.0009 24.9294 22.1478 24.5764 21.694Z" fill="#71717A"/>
</svg>
