<svg width="20" height="23" viewBox="0 0 20 23" fill="none" xmlns="http://www.w3.org/2000/svg">
<path d="M16.2232 21.9378C14.9878 23.1354 13.639 22.9463 12.3406 22.379C10.9665 21.7992 9.70589 21.7739 8.25619 22.379C6.44092 23.1606 5.48286 22.9337 4.39874 21.9378C-1.75302 15.597 -0.845382 5.94074 6.13838 5.58777C7.84019 5.67601 9.02516 6.52062 10.021 6.59625C11.5086 6.29371 12.933 5.42389 14.5214 5.53734C16.4249 5.68862 17.862 6.44498 18.8075 7.80643C14.8744 10.1638 15.8072 15.3449 19.4126 16.7946C18.694 18.6855 17.7612 20.5638 16.2106 21.9504L16.2232 21.9378ZM9.89498 5.51213C9.70589 2.70098 11.9876 0.381465 14.6096 0.154556C14.9752 3.40692 11.6598 5.82728 9.89498 5.51213Z" fill="#71717A"/>
</svg>
