<svg width="48" height="17" viewBox="0 0 48 17" fill="none" xmlns="http://www.w3.org/2000/svg">
<path d="M10.4307 10.4309V0.503662H12.8416V16.5764H10.4544V15.0873C9.36709 16.1982 7.85436 16.86 6.17618 16.86C2.72527 16.86 0.0780029 14.3546 0.0780029 10.5727V0.503662H2.44164V10.4309C2.44164 13.0073 4.19073 14.6855 6.45982 14.6855C8.68163 14.6855 10.4307 12.96 10.4307 10.4309ZM16.9544 0.503662V6.3182C17.498 5.82184 18.1598 5.37275 18.8689 5.06548C19.578 4.78184 20.358 4.61639 21.138 4.61639C24.5889 4.61639 27.2598 7.3582 27.2598 10.7382C27.2598 14.1182 24.5889 16.86 21.138 16.86C20.358 16.86 19.578 16.6946 18.8689 16.4109C18.1362 16.1037 17.498 15.6546 16.9307 15.1109V16.5764H14.638V0.503662H16.9544ZM25.0144 10.7382C25.0144 8.46911 23.1707 6.67275 20.9725 6.67275C18.7271 6.67275 16.9307 8.46911 16.9307 10.7382C16.9307 12.9837 18.7034 14.8037 20.9725 14.8037C23.1707 14.8037 25.0144 12.9837 25.0144 10.7382ZM34.2562 4.64002C37.6598 4.64002 40.1416 7.24002 40.1416 10.7146V11.4946H30.5925C30.8998 13.4091 32.4834 14.8037 34.4689 14.8037C35.8398 14.8037 36.9743 14.26 37.8962 13.0782L39.5507 14.3309C38.9641 15.1228 38.197 15.7632 37.3131 16.1989C36.4293 16.6347 35.4542 16.8532 34.4689 16.8364C30.9471 16.8364 28.2289 14.2127 28.2289 10.7146C28.2289 7.42911 30.8053 4.64002 34.2562 4.64002ZM30.6162 9.65093H37.778C37.3998 7.85457 35.958 6.67275 34.2089 6.67275C32.4834 6.67275 31.0416 7.85457 30.6162 9.65093ZM43.8052 9.86366V16.5764H41.4416V4.87639H43.7343V6.3182C44.3016 5.37275 45.2471 4.78184 46.5471 4.78184H47.3507V6.93275H46.3816C44.8689 6.93275 43.8052 8.11457 43.8052 9.86366Z" fill="#71717A"/>
</svg>
